{"asset":{"version":"2.0","generator":"Blockbench 5.0.3 glTF exporter"},"scenes":[{"nodes":[0,1,2,3,4,5,6,7,8,9,10,11],"name":"blockbench_export"}],"scene":0,"nodes":[{"translation":[0.5625,1.0625,0],"name":"cuboid-col","mesh":0},{"translation":[-0.4375,1.75,-0.0625],"name":"cuboid-col","mesh":1},{"translation":[-0.125,1.8125,-0.0625],"name":"cuboid-col","mesh":2},{"translation":[0.125,1.8125,-0.0625],"name":"cuboid-col","mesh":3},{"translation":[0.125,0.125,-0.0625],"name":"cuboid-col","mesh":4},{"translation":[-0.125,0.125,-0.0625],"name":"cuboid-col","mesh":5},{"translation":[0.375,0.125,-0.0625],"name":"cuboid-col","mesh":6},{"translation":[0.375,1.8125,-0.0625],"name":"cuboid-col","mesh":7},{"translation":[0.1875,0.9375,0.0625],"name":"cuboid-col","mesh":8},{"translation":[-0.0625,0.875,0.0625],"name":"cuboid-col","mesh":9},{"translation":[-0.375,0.875,0.0625],"name":"cuboid-col","mesh":10},{"translation":[0.375,0.875,0.0625],"name":"cuboid-col","mesh":11}],"bufferViews":[{"buffer":0,"byteOffset":0,"byteLength":2304,"target":34962,"byteStride":12},{"buffer":0,"byteOffset":2304,"byteLength":2304,"target":34962,"byteStride":12},{"buffer":0,"byteOffset":4608,"byteLength":1536,"target":34962,"byteStride":8},{"buffer":0,"byteOffset":6144,"byteLength":576,"target":34963},{"buffer":0,"byteOffset":6720,"byteLength":1440,"target":34962,"byteStride":12},{"buffer":0,"byteOffset":8160,"byteLength":1440,"target":34962,"byteStride":12},{"buffer":0,"byteOffset":9600,"byteLength":960,"target":34962,"byteStride":8},{"buffer":0,"byteOffset":10560,"byteLength":360,"target":34963},{"buffer":0,"byteOffset":10920,"byteLength":1440,"target":34962,"byteStride":12},{"buffer":0,"byteOffset":12360,"byteLength":1440,"target":34962,"byteStride":12},{"buffer":0,"byteOffset":13800,"byteLength":960,"target":34962,"byteStride":8},{"buffer":0,"byteOffset":14760,"byteLength":360,"target":34963},{"buffer":0,"byteOffset":15120,"byteLength":1440,"target":34962,"byteStride":12},{"buffer":0,"byteOffset":16560,"byteLength":1440,"target":34962,"byteStride":12},{"buffer":0,"byteOffset":18000,"byteLength":960,"target":34962,"byteStride":8},{"buffer":0,"byteOffset":18960,"byteLength":360,"target":34963},{"buffer":0,"byteOffset":19320,"byteLength":1440,"target":34962,"byteStride":12},{"buffer":0,"byteOffset":20760,"byteLength":1440,"target":34962,"byteStride":12},{"buffer":0,"byteOffset":22200,"byteLength":960,"target":34962,"byteStride":8},{"buffer":0,"byteOffset":23160,"byteLength":360,"target":34963},{"buffer":0,"byteOffset":23520,"byteLength":1440,"target":34962,"byteStride":12},{"buffer":0,"byteOffset":24960,"byteLength":1440,"target":34962,"byteStride":12},{"buffer":0,"byteOffset":26400,"byteLength":960,"target":34962,"byteStride":8},{"buffer":0,"byteOffset":27360,"byteLength":360,"target":34963},{"buffer":0,"byteOffset":27720,"byteLength":1440,"target":34962,"byteStride":12},{"buffer":0,"byteOffset":29160,"byteLength":1440,"target":34962,"byteStride":12},{"buffer":0,"byteOffset":30600,"byteLength":960,"target":34962,"byteStride":8},{"buffer":0,"byteOffset":31560,"byteLength":360,"target":34963},{"buffer":0,"byteOffset":31920,"byteLength":1440,"target":34962,"byteStride":12},{"buffer":0,"byteOffset":33360,"byteLength":1440,"target":34962,"byteStride":12},{"buffer":0,"byteOffset":34800,"byteLength":960,"target":34962,"byteStride":8},{"buffer":0,"byteOffset":35760,"byteLength":360,"target":34963},{"buffer":0,"byteOffset":36120,"byteLength":1440,"target":34962,"byteStride":12},{"buffer":0,"byteOffset":37560,"byteLength":1440,"target":34962,"byteStride":12},{"buffer":0,"byteOffset":39000,"byteLength":960,"target":34962,"byteStride":8},{"buffer":0,"byteOffset":39960,"byteLength":360,"target":34963},{"buffer":0,"byteOffset":40320,"byteLength":1440,"target":34962,"byteStride":12},{"buffer":0,"byteOffset":41760,"byteLength":1440,"target":34962,"byteStride":12},{"buffer":0,"byteOffset":43200,"byteLength":960,"target":34962,"byteStride":8},{"buffer":0,"byteOffset":44160,"byteLength":360,"target":34963},{"buffer":0,"byteOffset":44520,"byteLength":1440,"target":34962,"byteStride":12},{"buffer":0,"byteOffset":45960,"byteLength":1440,"target":34962,"byteStride":12},{"buffer":0,"byteOffset":47400,"byteLength":960,"target":34962,"byteStride":8},{"buffer":0,"byteOffset":48360,"byteLength":360,"target":34963},{"buffer":0,"byteOffset":48720,"byteLength":1440,"target":34962,"byteStride":12},{"buffer":0,"byteOffset":50160,"byteLength":1440,"target":34962,"byteStride":12},{"buffer":0,"byteOffset":51600,"byteLength":960,"target":34962,"byteStride":8},{"buffer":0,"byteOffset":52560,"byteLength":360,"target":34963}],"buffers":[{"byteLength":52920,"uri":"data:application/octet-stream;base64,"}],"accessors":[{"bufferView":0,"componentType":5126,"count":192,"max":[0.03125,1.5625,0.53125],"min":[-1.15625,-1.0625,-0.53125],"type":"VEC3"},{"bufferView":1,"componentType":5126,"count":192,"max":[1,1,1],"min":[-1,-1,-1],"type":"VEC3"},{"bufferView":2,"componentType":5126,"count":192,"max":[0.8828125,0.9765625],"min":[0,0],"type":"VEC2"},{"bufferView":3,"componentType":5123,"count":288,"max":[191],"min":[0],"type":"SCALAR"},{"bufferView":4,"componentType":5126,"count":120,"max":[0.21875,0.5,0.375],"min":[-0.09375,-4.440892098500626e-16,-0.34375],"type":"VEC3"},{"bufferView":5,"componentType":5126,"count":120,"max":[1,1,1],"min":[-1,-1,-1],"type":"VEC3"},{"bufferView":6,"componentType":5126,"count":120,"max":[0.734375,0.8125],"min":[0,0],"type":"VEC2"},{"bufferView":7,"componentType":5123,"count":180,"max":[119],"min":[0],"type":"SCALAR"},{"bufferView":8,"componentType":5126,"count":120,"max":[0.09375,0.53125,0.25],"min":[-0.09375,-0.03125,-0.21875],"type":"VEC3"},{"bufferView":9,"componentType":5126,"count":120,"max":[1,1,1],"min":[-1,-1,-1],"type":"VEC3"},{"bufferView":10,"componentType":5126,"count":120,"max":[0.796875,0.8515625],"min":[0,0],"type":"VEC2"},{"bufferView":11,"componentType":5123,"count":180,"max":[119],"min":[0],"type":"SCALAR"},{"bufferView":12,"componentType":5126,"count":120,"max":[0.09375,0.53125,0.25],"min":[-0.09375,-0.03125,-0.21875],"type":"VEC3"},{"bufferView":13,"componentType":5126,"count":120,"max":[1,1,1],"min":[-1,-1,-1],"type":"VEC3"},{"bufferView":14,"componentType":5126,"count":120,"max":[0.8125,0.8515625],"min":[0,0],"type":"VEC2"},{"bufferView":15,"componentType":5123,"count":180,"max":[119],"min":[0],"type":"SCALAR"},{"bufferView":16,"componentType":5126,"count":120,"max":[0.09375,0.53125,0.25],"min":[-0.09375,-0.03125,-0.21875],"type":"VEC3"},{"bufferView":17,"componentType":5126,"count":120,"max":[1,1,1],"min":[-1,-1,-1],"type":"VEC3"},{"bufferView":18,"componentType":5126,"count":120,"max":[0.8125,0.8515625],"min":[0,0],"type":"VEC2"},{"bufferView":19,"componentType":5123,"count":180,"max":[119],"min":[0],"type":"SCALAR"},{"bufferView":20,"componentType":5126,"count":120,"max":[0.09375,0.53125,0.25],"min":[-0.09375,-0.03125,-0.21875],"type":"VEC3"},{"bufferView":21,"componentType":5126,"count":120,"max":[1,1,1],"min":[-1,-1,-1],"type":"VEC3"},{"bufferView":22,"componentType":5126,"count":120,"max":[0.8125,0.84375],"min":[0,0.1328125],"type":"VEC2"},{"bufferView":23,"componentType":5123,"count":180,"max":[119],"min":[0],"type":"SCALAR"},{"bufferView":24,"componentType":5126,"count":120,"max":[0.09375,0.53125,0.25],"min":[-0.09375,-0.03125,-0.21875],"type":"VEC3"},{"bufferView":25,"componentType":5126,"count":120,"max":[1,1,1],"min":[-1,-1,-1],"type":"VEC3"},{"bufferView":26,"componentType":5126,"count":120,"max":[0.84375,0.8515625],"min":[0,0],"type":"VEC2"},{"bufferView":27,"componentType":5123,"count":180,"max":[119],"min":[0],"type":"SCALAR"},{"bufferView":28,"componentType":5126,"count":120,"max":[0.09375,0.53125,0.25],"min":[-0.09375,-0.03125,-0.21875],"type":"VEC3"},{"bufferView":29,"componentType":5126,"count":120,"max":[1,1,1],"min":[-1,-1,-1],"type":"VEC3"},{"bufferView":30,"componentType":5126,"count":120,"max":[0.84375,0.8515625],"min":[0,0],"type":"VEC2"},{"bufferView":31,"componentType":5123,"count":180,"max":[119],"min":[0],"type":"SCALAR"},{"bufferView":32,"componentType":5126,"count":120,"max":[0.09375,0.53125,0.25],"min":[-0.09375,-0.03125,-0.21875],"type":"VEC3"},{"bufferView":33,"componentType":5126,"count":120,"max":[1,1,1],"min":[-1,-1,-1],"type":"VEC3"},{"bufferView":34,"componentType":5126,"count":120,"max":[0.84375,0.8515625],"min":[0,0],"type":"VEC2"},{"bufferView":35,"componentType":5123,"count":180,"max":[119],"min":[0],"type":"SCALAR"},{"bufferView":36,"componentType":5126,"count":120,"max":[0.09375,0.53125,0.25],"min":[-0.09375,-0.03125,-0.21875],"type":"VEC3"},{"bufferView":37,"componentType":5126,"count":120,"max":[1,1,1],"min":[-1,-1,-1],"type":"VEC3"},{"bufferView":38,"componentType":5126,"count":120,"max":[0.84375,0.8671875],"min":[0.0625,0],"type":"VEC2"},{"bufferView":39,"componentType":5123,"count":180,"max":[119],"min":[0],"type":"SCALAR"},{"bufferView":40,"componentType":5126,"count":120,"max":[0.21875,0.5,0.375],"min":[-0.09375,-4.440892098500626e-16,-0.34375],"type":"VEC3"},{"bufferView":41,"componentType":5126,"count":120,"max":[1,1,1],"min":[-1,-1,-1],"type":"VEC3"},{"bufferView":42,"componentType":5126,"count":120,"max":[0.7890625,0.84375],"min":[0,0],"type":"VEC2"},{"bufferView":43,"componentType":5123,"count":180,"max":[119],"min":[0],"type":"SCALAR"},{"bufferView":44,"componentType":5126,"count":120,"max":[0.09375,0.53125,0.25],"min":[-0.09375,-0.03125,-0.21875],"type":"VEC3"},{"bufferView":45,"componentType":5126,"count":120,"max":[1,1,1],"min":[-1,-1,-1],"type":"VEC3"},{"bufferView":46,"componentType":5126,"count":120,"max":[0.84375,0.8671875],"min":[0,0],"type":"VEC2"},{"bufferView":47,"componentType":5123,"count":180,"max":[119],"min":[0],"type":"SCALAR"}],"materials":[{"pbrMetallicRoughness":{"metallicFactor":0,"roughnessFactor":1,"baseColorTexture":{"index":0}},"alphaMode":"MASK","alphaCutoff":0.05,"doubleSided":true},{"pbrMetallicRoughness":{"metallicFactor":0,"roughnessFactor":1,"baseColorTexture":{"index":1}},"alphaMode":"MASK","alphaCutoff":0.05,"doubleSided":true}],"textures":[{"sampler":0,"source":0,"name":"texture"},{"sampler":1,"source":1,"name":"books"}],"samplers":[{"magFilter":9728,"minFilter":9728,"wrapS":33071,"wrapT":33071},{"magFilter":9728,"minFilter":9728,"wrapS":33071,"wrapT":33071}],"images":[{"mimeType":"image/png","uri":"data:image/png;base64,"},{"mimeType":"image/png","uri":"data:image/png;base64,"}],"meshes":[{"primitives":[{"mode":4,"attributes":{"POSITION":0,"NORMAL":1,"TEXCOORD_0":2},"indices":3,"material":0}]},{"primitives":[{"mode":4,"attributes":{"POSITION":4,"NORMAL":5,"TEXCOORD_0":6},"indices":7,"material":1}]},{"primitives":[{"mode":4,"attributes":{"POSITION":8,"NORMAL":9,"TEXCOORD_0":10},"indices":11,"material":1}]},{"primitives":[{"mode":4,"attributes":{"POSITION":12,"NORMAL":13,"TEXCOORD_0":14},"indices":15,"material":1}]},{"primitives":[{"mode":4,"attributes":{"POSITION":16,"NORMAL":17,"TEXCOORD_0":18},"indices":19,"material":1}]},{"primitives":[{"mode":4,"attributes":{"POSITION":20,"NORMAL":21,"TEXCOORD_0":22},"indices":23,"material":1}]},{"primitives":[{"mode":4,"attributes":{"POSITION":24,"NORMAL":25,"TEXCOORD_0":26},"indices":27,"material":1}]},{"primitives":[{"mode":4,"attributes":{"POSITION":28,"NORMAL":29,"TEXCOORD_0":30},"indices":31,"material":1}]},{"primitives":[{"mode":4,"attributes":{"POSITION":32,"NORMAL":33,"TEXCOORD_0":34},"indices":35,"material":1}]},{"primitives":[{"mode":4,"attributes":{"POSITION":36,"NORMAL":37,"TEXCOORD_0":38},"indices":39,"material":1}]},{"primitives":[{"mode":4,"attributes":{"POSITION":40,"NORMAL":41,"TEXCOORD_0":42},"indices":43,"material":1}]},{"primitives":[{"mode":4,"attributes":{"POSITION":44,"NORMAL":45,"TEXCOORD_0":46},"indices":47,"material":1}]}]}