{"asset":{"version":"2.0","generator":"Blockbench 5.0.3 glTF exporter"},"scenes":[{"nodes":[0,1,2,3],"name":"blockbench_export"}],"scene":0,"nodes":[{"translation":[0.5625,1.0625,0],"name":"cuboid-col","mesh":0},{"translation":[1.75,1.0625,0],"name":"cuboid-col","mesh":1},{"translation":[-0.625,1.0625,0],"name":"cuboid-col","mesh":2},{"translation":[2.9375,1.0625,0],"name":"cuboid-col","mesh":3}],"bufferViews":[{"buffer":0,"byteOffset":0,"byteLength":21888,"target":34962,"byteStride":12},{"buffer":0,"byteOffset":21888,"byteLength":21888,"target":34962,"byteStride":12},{"buffer":0,"byteOffset":43776,"byteLength":14592,"target":34962,"byteStride":8},{"buffer":0,"byteOffset":58368,"byteLength":1152,"target":34963},{"buffer":0,"byteOffset":59520,"byteLength":4320,"target":34963},{"buffer":0,"byteOffset":63840,"byteLength":21888,"target":34962,"byteStride":12},{"buffer":0,"byteOffset":85728,"byteLength":21888,"target":34962,"byteStride":12},{"buffer":0,"byteOffset":107616,"byteLength":14592,"target":34962,"byteStride":8},{"buffer":0,"byteOffset":122208,"byteLength":1152,"target":34963},{"buffer":0,"byteOffset":123360,"byteLength":4320,"target":34963},{"buffer":0,"byteOffset":127680,"byteLength":21888,"target":34962,"byteStride":12},{"buffer":0,"byteOffset":149568,"byteLength":21888,"target":34962,"byteStride":12},{"buffer":0,"byteOffset":171456,"byteLength":14592,"target":34962,"byteStride":8},{"buffer":0,"byteOffset":186048,"byteLength":1152,"target":34963},{"buffer":0,"byteOffset":187200,"byteLength":4320,"target":34963},{"buffer":0,"byteOffset":191520,"byteLength":21888,"target":34962,"byteStride":12},{"buffer":0,"byteOffset":213408,"byteLength":21888,"target":34962,"byteStride":12},{"buffer":0,"byteOffset":235296,"byteLength":14592,"target":34962,"byteStride":8},{"buffer":0,"byteOffset":249888,"byteLength":1152,"target":34963},{"buffer":0,"byteOffset":251040,"byteLength":4320,"target":34963}],"buffers":[{"byteLength":255360,"uri":"data:application/octet-stream;base64,"}],"accessors":[{"bufferView":0,"componentType":5126,"count":1824,"max":[0.03125,1.5625,0.53125],"min":[-1.15625,-1.0625,-0.53125],"type":"VEC3"},{"bufferView":1,"componentType":5126,"count":1824,"max":[1,1,1],"min":[-1,-1,-1],"type":"VEC3"},{"bufferView":2,"componentType":5126,"count":1824,"max":[0.8828125,0.9765625],"min":[0,0],"type":"VEC2"},{"bufferView":3,"componentType":5123,"count":576,"max":[383],"min":[0],"type":"SCALAR"},{"bufferView":4,"componentType":5123,"count":2160,"max":[1823],"min":[384],"type":"SCALAR"},{"bufferView":5,"componentType":5126,"count":1824,"max":[0.03125,1.5625,0.53125],"min":[-1.15625,-1.0625,-0.53125],"type":"VEC3"},{"bufferView":6,"componentType":5126,"count":1824,"max":[1,1,1],"min":[-1,-1,-1],"type":"VEC3"},{"bufferView":7,"componentType":5126,"count":1824,"max":[0.8828125,0.9765625],"min":[0,0],"type":"VEC2"},{"bufferView":8,"componentType":5123,"count":576,"max":[383],"min":[0],"type":"SCALAR"},{"bufferView":9,"componentType":5123,"count":2160,"max":[1823],"min":[384],"type":"SCALAR"},{"bufferView":10,"componentType":5126,"count":1824,"max":[0.03125,1.5625,0.53125],"min":[-1.15625,-1.0625,-0.53125],"type":"VEC3"},{"bufferView":11,"componentType":5126,"count":1824,"max":[1,1,1],"min":[-1,-1,-1],"type":"VEC3"},{"bufferView":12,"componentType":5126,"count":1824,"max":[0.8828125,0.9765625],"min":[0,0],"type":"VEC2"},{"bufferView":13,"componentType":5123,"count":576,"max":[383],"min":[0],"type":"SCALAR"},{"bufferView":14,"componentType":5123,"count":2160,"max":[1823],"min":[384],"type":"SCALAR"},{"bufferView":15,"componentType":5126,"count":1824,"max":[0.03125,1.5625,0.53125],"min":[-1.15625,-1.0625,-0.53125],"type":"VEC3"},{"bufferView":16,"componentType":5126,"count":1824,"max":[1,1,1],"min":[-1,-1,-1],"type":"VEC3"},{"bufferView":17,"componentType":5126,"count":1824,"max":[0.8828125,0.9765625],"min":[0,0],"type":"VEC2"},{"bufferView":18,"componentType":5123,"count":576,"max":[383],"min":[0],"type":"SCALAR"},{"bufferView":19,"componentType":5123,"count":2160,"max":[1823],"min":[384],"type":"SCALAR"}],"materials":[{"pbrMetallicRoughness":{"metallicFactor":0,"roughnessFactor":1,"baseColorTexture":{"index":0}},"alphaMode":"MASK","alphaCutoff":0.05,"doubleSided":true},{"pbrMetallicRoughness":{"metallicFactor":0,"roughnessFactor":1,"baseColorTexture":{"index":1}},"alphaMode":"MASK","alphaCutoff":0.05,"doubleSided":true}],"textures":[{"sampler":0,"source":0,"name":"texture"},{"sampler":1,"source":1,"name":"books"}],"samplers":[{"magFilter":9728,"minFilter":9728,"wrapS":33071,"wrapT":33071},{"magFilter":9728,"minFilter":9728,"wrapS":33071,"wrapT":33071}],"images":[{"mimeType":"image/png","uri":"data:image/png;base64,"},{"mimeType":"image/png","uri":"data:image/png;base64,"}],"meshes":[{"primitives":[{"mode":4,"attributes":{"POSITION":0,"NORMAL":1,"TEXCOORD_0":2},"indices":3,"material":0},{"mode":4,"attributes":{"POSITION":0,"NORMAL":1,"TEXCOORD_0":2},"indices":4,"material":1}]},{"primitives":[{"mode":4,"attributes":{"POSITION":5,"NORMAL":6,"TEXCOORD_0":7},"indices":8,"material":0},{"mode":4,"attributes":{"POSITION":5,"NORMAL":6,"TEXCOORD_0":7},"indices":9,"material":1}]},{"primitives":[{"mode":4,"attributes":{"POSITION":10,"NORMAL":11,"TEXCOORD_0":12},"indices":13,"material":0},{"mode":4,"attributes":{"POSITION":10,"NORMAL":11,"TEXCOORD_0":12},"indices":14,"material":1}]},{"primitives":[{"mode":4,"attributes":{"POSITION":15,"NORMAL":16,"TEXCOORD_0":17},"indices":18,"material":0},{"mode":4,"attributes":{"POSITION":15,"NORMAL":16,"TEXCOORD_0":17},"indices":19,"material":1}]}]}