{"asset":{"version":"2.0","generator":"Blockbench 5.0.3 glTF exporter"},"scenes":[{"nodes":[0],"name":"blockbench_export"}],"scene":0,"nodes":[{"translation":[0,0.875,0],"name":"cuboid-col","mesh":0}],"bufferViews":[{"buffer":0,"byteOffset":0,"byteLength":14688,"target":34962,"byteStride":12},{"buffer":0,"byteOffset":14688,"byteLength":14688,"target":34962,"byteStride":12},{"buffer":0,"byteOffset":29376,"byteLength":9792,"target":34962,"byteStride":8},{"buffer":0,"byteOffset":39168,"byteLength":3384,"target":34963}],"buffers":[{"byteLength":42552,"uri":"data:application/octet-stream;base64,"}],"accessors":[{"bufferView":0,"componentType":5126,"count":1224,"max":[0.625,0.28125,1.3125],"min":[-0.71875,-0.5,-1.3125],"type":"VEC3"},{"bufferView":1,"componentType":5126,"count":1224,"max":[1,1,1],"min":[-1,-1,-1],"type":"VEC3"},{"bufferView":2,"componentType":5126,"count":1224,"max":[0.8046875,0.625],"min":[0,0],"type":"VEC2"},{"bufferView":3,"componentType":5123,"count":1692,"max":[1223],"min":[0],"type":"SCALAR"}],"materials":[{"pbrMetallicRoughness":{"metallicFactor":0,"roughnessFactor":1,"baseColorTexture":{"index":0}},"alphaMode":"MASK","alphaCutoff":0.05,"doubleSided":true}],"textures":[{"sampler":0,"source":0,"name":"desk1"}],"samplers":[{"magFilter":9728,"minFilter":9728,"wrapS":33071,"wrapT":33071}],"images":[{"mimeType":"image/png","uri":"data:image/png;base64,"}],"meshes":[{"primitives":[{"mode":4,"attributes":{"POSITION":0,"NORMAL":1,"TEXCOORD_0":2},"indices":3,"material":0}]}]}