{"asset":{"version":"2.0","generator":"Blockbench 5.0.3 glTF exporter"},"scenes":[{"nodes":[0],"name":"blockbench_export"}],"scene":0,"nodes":[{"name":"cuboid-col","mesh":0}],"bufferViews":[{"buffer":0,"byteOffset":0,"byteLength":28224,"target":34962,"byteStride":12},{"buffer":0,"byteOffset":28224,"byteLength":28224,"target":34962,"byteStride":12},{"buffer":0,"byteOffset":56448,"byteLength":18816,"target":34962,"byteStride":8},{"buffer":0,"byteOffset":75264,"byteLength":6480,"target":34963}],"buffers":[{"byteLength":81744,"uri":"data:application/octet-stream;base64,"}],"accessors":[{"bufferView":0,"componentType":5126,"count":2352,"max":[1.65625,1.0625,2.6875],"min":[-1.65625,-0.5,-2.6875],"type":"VEC3"},{"bufferView":1,"componentType":5126,"count":2352,"max":[1,1,1],"min":[-1,-1,-1],"type":"VEC3"},{"bufferView":2,"componentType":5126,"count":2352,"max":[0.984375,0.734375],"min":[0,0],"type":"VEC2"},{"bufferView":3,"componentType":5123,"count":3240,"max":[2351],"min":[0],"type":"SCALAR"}],"materials":[{"pbrMetallicRoughness":{"metallicFactor":0,"roughnessFactor":1,"baseColorTexture":{"index":0}},"alphaMode":"MASK","alphaCutoff":0.05,"doubleSided":true}],"textures":[{"sampler":0,"source":0,"name":"island.png"}],"samplers":[{"magFilter":9728,"minFilter":9728,"wrapS":33071,"wrapT":33071}],"images":[{"mimeType":"image/png","uri":"data:image/png;base64,"}],"meshes":[{"primitives":[{"mode":4,"attributes":{"POSITION":0,"NORMAL":1,"TEXCOORD_0":2},"indices":3,"material":0}]}]}