{"asset":{"version":"2.0","generator":"Blockbench 5.0.3 glTF exporter"},"scenes":[{"nodes":[0],"name":"blockbench_export"}],"scene":0,"nodes":[{"translation":[-0.8125,0.4375,-0.0625],"name":"sphere-col","mesh":0}],"bufferViews":[{"buffer":0,"byteOffset":0,"byteLength":6384,"target":34962,"byteStride":12},{"buffer":0,"byteOffset":6384,"byteLength":6384,"target":34962,"byteStride":12},{"buffer":0,"byteOffset":12768,"byteLength":4256,"target":34962,"byteStride":8},{"buffer":0,"byteOffset":17024,"byteLength":1440,"target":34963}],"buffers":[{"byteLength":18464,"uri":"data:application/octet-stream;base64,"}],"accessors":[{"bufferView":0,"componentType":5126,"count":532,"max":[2.15625,1.375,1.4375],"min":[-0.65625,-0.84375,-1.3125],"type":"VEC3"},{"bufferView":1,"componentType":5126,"count":532,"max":[0.9767289757728577,0.9897440671920776,0.9755557179450989],"min":[-0.9735988974571228,-0.9991048574447632,-0.9803988933563232],"type":"VEC3"},{"bufferView":2,"componentType":5126,"count":532,"max":[0.8203125,0.8439874649047852],"min":[0,0],"type":"VEC2"},{"bufferView":3,"componentType":5123,"count":720,"max":[531],"min":[0],"type":"SCALAR"}],"materials":[{"pbrMetallicRoughness":{"metallicFactor":0,"roughnessFactor":1,"baseColorTexture":{"index":0}},"alphaMode":"MASK","alphaCutoff":0.05,"doubleSided":true}],"textures":[{"sampler":0,"source":0,"name":"ROCK"}],"samplers":[{"magFilter":9728,"minFilter":9728,"wrapS":33071,"wrapT":33071}],"images":[{"mimeType":"image/png","uri":"data:image/png;base64,"}],"meshes":[{"primitives":[{"mode":4,"attributes":{"POSITION":0,"NORMAL":1,"TEXCOORD_0":2},"indices":3,"material":0}]}]}